# xmcd
#
# Track frame offsets: 
#        183
#        14833
#        35033
#        43283
#        56970
#        83633
#        98308
#        113545
#        130445
#        148333
#        160520
#        176108
#        194433
#
# Disc length: 2878 seconds
#
# Revision: 1
# Processed by: cddbd v1.5.2PL0 Copyright (c) Steve Scherf et al.
# Submitted via: ExactAudioCopy v1.1
#
DISCID=b90b3c0d
DTITLE=Burrito Brothers - Back To The Sweethearts Of The Rodeo [CD1)
DYEAR=1990
DGENRE=Country
TTITLE0=Back To The Sweetheart Of The Rodeo
TTITLE1=Burning Embers
TTITLE2=Red Shoes
TTITLE3=Shoot For The Moon
TTITLE4=Moonlight Rider
TTITLE5=Carry Me
TTITLE6=Baby Want You Let Me Be The One
TTITLE7=Gold Guitar
TTITLE8=True True Love
TTITLE9=I'm Impressed
TTITLE10=Let's Do Something Crazy
TTITLE11=You're A Fool To Love
TTITLE12=Mean Streets
EXTD=YEAR: 1990
EXTT0=
EXTT1=
EXTT2=
EXTT3=
EXTT4=
EXTT5=
EXTT6=
EXTT7=
EXTT8=
EXTT9=
EXTT10=
EXTT11=
EXTT12=
PLAYORDER=
